#!OML:ASF G:\JayActor3\Patient Classification 1\Patient 1\Session 2\male.ASF
:FULLY-SPECIFIED
:DEGREES
3673
root -40.9955 16.6869 -4.04817 -1273.56 -272.799 884.195
lowerback -6.38074 -2.30258 -3.11809
upperback 2.92554 -2.82375 0.592629
thorax 6.82935 -1.53792 2.02216
lowerneck -11.8186 -2.90951 -1.94804
upperneck 7.7523 -4.25211 6.66443
head 4.44136 -1.73536 2.06423
rclavicle 1.69029e-014 5.71506e-015
rhumerus -32.7153 9.39179 -83.8827
rradius 25.9252
rwrist 0.887388
rhand -22.8764 3.39571
rfingers 7.12502
rthumb 3.56244 -26.5543
lclavicle 1.69029e-014 5.71506e-015
lhumerus -18.5272 -14.3712 76.3751
lradius 49.207
lwrist 8.75678
lhand -12.75 18.0479
lfingers 7.12502
lthumb 13.3341 47.6013
rfemur -18.27 5.66946 21.7334
rtibia 40.3758
rfoot -26.1714 -5.07825
rtoes 17.6852
lfemur -5.81574 12.0209 -25.5542
ltibia 21.8195
lfoot -22.984 13.0423
ltoes -8.32845
3674
root -40.9847 16.6891 -4.03394 -1273.53 -272.758 884.255
lowerback -6.50118 -2.37719 -3.1499
upperback 2.85605 -2.92227 0.653527
thorax 6.83627 -1.58877 2.08793
lowerneck -11.9067 -2.81323 -1.84197
upperneck 7.75807 -4.1234 6.49979
head 4.44583 -1.67764 2.00502
rclavicle -3.50482e-014 1.0635e-014
rhumerus -32.8552 8.79011 -83.5874
rradius 25.3317
rwrist 1.15615
rhand -22.7226 3.37212
rfingers 7.12502
rthumb 3.71096 -26.5753
lclavicle -3.50482e-014 1.0635e-014
lhumerus -18.9028 -14.614 77.1366
lradius 48.916
lwrist 8.60846
lhand -12.6422 17.993
lfingers 7.12502
lthumb 13.438 47.5395
rfemur -18.0997 5.65722 21.8106
rtibia 40.1888
rfoot -26.2846 -5.0011
rtoes 17.6689
lfemur -5.72203 11.885 -25.4947
ltibia 21.7511
lfoot -22.9055 13.2927
ltoes -8.24046
3675
root -40.9728 16.6907 -4.01978 -1273.54 -272.727 884.268
lowerback -6.6321 -2.44406 -3.17461
upperback 2.79717 -3.00993 0.70595
thorax 6.85919 -1.63396 2.14137
lowerneck -12.0222 -2.72037 -1.73821
upperneck 7.7968 -4.0014 6.3406
head 4.46575 -1.62181 1.94707
rclavicle 1.82944e-014 4.47266e-015
rhumerus -33.0195 8.18502 -83.2932
rradius 24.7852
rwrist 1.43942
rhand -22.5738 3.40755
rfingers 7.12502
rthumb 3.85468 -26.5373
lclavicle 1.82944e-014 4.47266e-015
lhumerus -19.2577 -14.877 77.893
lradius 48.5928
lwrist 8.46041
lhand -12.5168 17.9719
lfingers 7.12502
lthumb 13.559 47.5105
rfemur -17.9209 5.64374 21.8807
rtibia 40.0103
rfoot -26.3942 -4.89961
rtoes 17.6995
lfemur -5.62187 11.7551 -25.4384
ltibia 21.6899
lfoot -22.7982 13.5548
ltoes -8.16905
3676
root -40.9602 16.6915 -4.006 -1273.78 -272.703 884.068
lowerback -6.75948 -2.50158 -3.194
upperback 2.74603 -3.08467 0.746505
thorax 6.88663 -1.67233 2.18083
lowerneck -12.1547 -2.64026 -1.64167
upperneck 7.85395 -3.8974 6.19058
head 4.49555 -1.57387 1.89161
rclavicle 3.71479e-015 6.55989e-015
rhumerus -33.2138 7.57654 -83.0006
rradius 24.2937
rwrist 1.746
rhand -22.4232 3.49195
rfingers 7.12502
rthumb 4.0001 -26.4502
lclavicle 3.71479e-015 6.55989e-015
lhumerus -19.5913 -15.1569 78.6441
lradius 48.2312
lwrist 8.32339
lhand -12.3703 17.9679
lfingers 7.12502
lthumb 13.7001 47.4969
rfemur -17.7343 5.62311 21.9327
rtibia 39.8412
rfoot -26.5077 -4.76208
rtoes 17.7594
lfemur -5.52077 11.644 -25.394
ltibia 21.646
lfoot -22.6718 13.8185
ltoes -8.12391
3677
root -40.9476 16.6915 -3.99293 -1273.93 -272.678 883.952
lowerback -6.8824 -2.54945 -3.18981
upperback 2.69893 -3.14832 0.7804
thorax 6.91333 -1.70404 2.2015
lowerneck -12.3104 -2.56522 -1.55135
upperneck 7.93363 -3.80158 6.05161
head 4.53707 -1.52868 1.83977
rclavicle -3.54085e-015 -1.98785e-015
rhumerus -33.4382 6.98542 -82.7177
rradius 23.861
rwrist 2.05358
rhand -22.2895 3.59568
rfingers 7.12502
rthumb 4.12926 -26.344
lclavicle -3.54085e-015 -1.98785e-015
lhumerus -19.9001 -15.4456 79.387
lradius 47.8234
lwrist 8.21173
lhand -12.2148 18.0052
lfingers 7.12502
lthumb 13.85 47.5241
rfemur -17.551 5.58927 21.9812
rtibia 39.6814
rfoot -26.617 -4.58153
rtoes 17.7865
lfemur -5.43129 11.5329 -25.3491
ltibia 21.6254
lfoot -22.5465 14.0903
ltoes -8.05775
3678
root -40.9358 16.6911 -3.98039 -1273.92 -272.646 883.988
lowerback -6.9983 -2.58451 -3.16279
upperback 2.64826 -3.19706 0.810818
thorax 6.92959 -1.72713 2.20801
lowerneck -12.4483 -2.50936 -1.46571
upperneck 8.00225 -3.73043 5.91414
head 4.57353 -1.49632 1.78749
rclavicle 2.54196e-014 -3.57812e-015
rhumerus -33.6994 6.41362 -82.4441
rradius 23.4917
rwrist 2.35639
rhand -22.1726 3.69862
rfingers 7.12502
rthumb 4.24214 -26.2389
lclavicle 2.54196e-014 -3.57812e-015
lhumerus -20.1868 -15.7373 80.125
lradius 47.3624
lwrist 8.11911
lhand -12.0492 18.0567
lfingers 7.12502
lthumb 14.0096 47.5646
rfemur -17.3862 5.55158 22.0323
rtibia 39.5306
rfoot -26.7279 -4.37825
rtoes 17.779
lfemur -5.36808 11.3618 -25.3077
ltibia 21.6303
lfoot -22.4488 14.4168
ltoes -7.94835
3679
root -40.924 16.6903 -3.96859 -1273.91 -272.607 884.022
lowerback -7.11752 -2.6048 -3.12046
upperback 2.59102 -3.22725 0.837233
thorax 6.93829 -1.74015 2.20421
lowerneck -12.5496 -2.47108 -1.39331
upperneck 8.06449 -3.68115 5.78393
head 4.60338 -1.47552 1.73826
rclavicle 3.13334e-014 -1.19271e-015
rhumerus -34.0088 5.87463 -82.1843
rradius 23.1885
rwrist 2.622
rhand -22.0679 3.7565
rfingers 7.12502
rthumb 4.34322 -26.179
lclavicle 3.13334e-014 -1.19271e-015
lhumerus -20.4599 -16.0228 80.8645
lradius 46.8478
lwrist 8.03937
lhand -11.8594 18.12
lfingers 7.12502
lthumb 14.1925 47.6152
rfemur -17.2374 5.49845 22.0777
rtibia 39.389
rfoot -26.8448 -4.14964
rtoes 17.6942
lfemur -5.32645 11.1938 -25.2716
ltibia 21.6575
lfoot -22.3702 14.7475
ltoes -7.8383
3680
root -40.9124 16.6896 -3.95722 -1273.7 -272.563 884.235
lowerback -7.24377 -2.61273 -3.06202
upperback 2.52507 -3.24255 0.865244
thorax 6.93983 -1.74499 2.19499
lowerneck -12.6163 -2.44658 -1.34236
upperneck 8.11422 -3.64806 5.6728
head 4.62515 -1.46301 1.69747
rclavicle -3.2054e-015 1.98785e-015
rhumerus -34.3584 5.37922 -81.9422
rradius 22.9514
rwrist 2.83473
rhand -21.9734 3.70502
rfingers 7.12502
rthumb 4.43445 -26.2286
lclavicle -3.2054e-015 1.98785e-015
lhumerus -20.7263 -16.2872 81.6052
lradius 46.2854
lwrist 7.96909
lhand -11.6391 18.171
lfingers 7.12502
lthumb 14.4048 47.6511
rfemur -17.111 5.43387 22.1277
rtibia 39.2552
rfoot -26.9788 -3.91218
rtoes 17.5187
lfemur -5.31146 11.0403 -25.23
ltibia 21.6998
lfoot -22.2954 15.0683
ltoes -7.77001
3681
root -40.9006 16.6887 -3.94617 -1273.58 -272.52 884.35
lowerback -7.37879 -2.61264 -3.00681
upperback 2.45895 -3.24658 0.892882
thorax 6.94564 -1.74445 2.18838
lowerneck -12.661 -2.43237 -1.30805
upperneck 8.15917 -3.62671 5.57122
head 4.6428 -1.4567 1.6616
rclavicle -4.72983e-014 0
rhumerus -34.7304 4.93759 -81.7196
rradius 22.772
rwrist 2.97878
rhand -21.8779 3.54532
rfingers 7.12502
rthumb 4.52668 -26.3863
lclavicle -4.72983e-014 0
lhumerus -20.9814 -16.5107 82.3414
lradius 45.6852
lwrist 7.90751
lhand -11.3897 18.2315
lfingers 7.12502
lthumb 14.645 47.6943
rfemur -16.9943 5.35505 22.1699
rtibia 39.1277
rfoot -27.1368 -3.67609
rtoes 17.2319
lfemur -5.30798 10.9101 -25.1934
ltibia 21.7513
lfoot -22.2273 15.3658
ltoes -7.72994
